<svg id="visual" viewBox="0 0 900 600" width="900" height="600" xmlns="http://www.w3.org/2000/svg" xmlns:xlink="http://www.w3.org/1999/xlink" version="1.1"><rect x="0" y="0" width="900" height="600" fill="#009473"></rect><path d="M0 317L21.5 318.2C43 319.3 86 321.7 128.8 314.2C171.7 306.7 214.3 289.3 257.2 285.7C300 282 343 292 385.8 303.3C428.7 314.7 471.3 327.3 514.2 333.2C557 339 600 338 642.8 325.5C685.7 313 728.3 289 771.2 274.3C814 259.7 857 254.3 878.5 251.7L900 249L900 601L878.5 601C857 601 814 601 771.2 601C728.3 601 685.7 601 642.8 601C600 601 557 601 514.2 601C471.3 601 428.7 601 385.8 601C343 601 300 601 257.2 601C214.3 601 171.7 601 128.8 601C86 601 43 601 21.5 601L0 601Z" fill="#009473"></path><path d="M0 361L21.5 366.7C43 372.3 86 383.7 128.8 378C171.7 372.3 214.3 349.7 257.2 340.8C300 332 343 337 385.8 346.8C428.7 356.7 471.3 371.3 514.2 385.7C557 400 600 414 642.8 413.7C685.7 413.3 728.3 398.7 771.2 392.8C814 387 857 390 878.5 391.5L900 393L900 601L878.5 601C857 601 814 601 771.2 601C728.3 601 685.7 601 642.8 601C600 601 557 601 514.2 601C471.3 601 428.7 601 385.8 601C343 601 300 601 257.2 601C214.3 601 171.7 601 128.8 601C86 601 43 601 21.5 601L0 601Z" fill="#47d3a0"></path><path d="M0 376L21.5 384.3C43 392.7 86 409.3 128.8 415.3C171.7 421.3 214.3 416.7 257.2 420C300 423.3 343 434.7 385.8 437.7C428.7 440.7 471.3 435.3 514.2 424.3C557 413.3 600 396.7 642.8 396.7C685.7 396.7 728.3 413.3 771.2 412.2C814 411 857 392 878.5 382.5L900 373L900 601L878.5 601C857 601 814 601 771.2 601C728.3 601 685.7 601 642.8 601C600 601 557 601 514.2 601C471.3 601 428.7 601 385.8 601C343 601 300 601 257.2 601C214.3 601 171.7 601 128.8 601C86 601 43 601 21.5 601L0 601Z" fill="#69fabc"></path><path d="M0 495L21.5 485.7C43 476.3 86 457.7 128.8 447.8C171.7 438 214.3 437 257.2 441.7C300 446.3 343 456.7 385.8 466.8C428.7 477 471.3 487 514.2 486.7C557 486.3 600 475.7 642.8 469C685.7 462.3 728.3 459.7 771.2 461.8C814 464 857 471 878.5 474.5L900 478L900 601L878.5 601C857 601 814 601 771.2 601C728.3 601 685.7 601 642.8 601C600 601 557 601 514.2 601C471.3 601 428.7 601 385.8 601C343 601 300 601 257.2 601C214.3 601 171.7 601 128.8 601C86 601 43 601 21.5 601L0 601Z" fill="#47d3a0"></path><path d="M0 560L21.5 549.5C43 539 86 518 128.8 507.2C171.7 496.3 214.3 495.7 257.2 497C300 498.3 343 501.7 385.8 503.2C428.7 504.7 471.3 504.3 514.2 507.3C557 510.3 600 516.7 642.8 526C685.7 535.3 728.3 547.7 771.2 546.8C814 546 857 532 878.5 525L900 518L900 601L878.5 601C857 601 814 601 771.2 601C728.3 601 685.7 601 642.8 601C600 601 557 601 514.2 601C471.3 601 428.7 601 385.8 601C343 601 300 601 257.2 601C214.3 601 171.7 601 128.8 601C86 601 43 601 21.5 601L0 601Z" fill="#009473"></path></svg>