<svg id="visual" viewBox="0 0 960 540" width="960" height="540" xmlns="http://www.w3.org/2000/svg" xmlns:xlink="http://www.w3.org/1999/xlink" version="1.1"><path d="M0 66L16 64.2C32 62.3 64 58.7 96 61.3C128 64 160 73 192 72.2C224 71.3 256 60.7 288 53.5C320 46.3 352 42.7 384 47.2C416 51.7 448 64.3 480 67C512 69.7 544 62.3 576 61.3C608 60.3 640 65.7 672 63C704 60.3 736 49.7 768 47C800 44.3 832 49.7 864 56C896 62.3 928 69.7 944 73.3L960 77L960 0L944 0C928 0 896 0 864 0C832 0 800 0 768 0C736 0 704 0 672 0C640 0 608 0 576 0C544 0 512 0 480 0C448 0 416 0 384 0C352 0 320 0 288 0C256 0 224 0 192 0C160 0 128 0 96 0C64 0 32 0 16 0L0 0Z" fill="#00608a"></path><path d="M0 179L16 172.7C32 166.3 64 153.7 96 151.8C128 150 160 159 192 167.2C224 175.3 256 182.7 288 177.3C320 172 352 154 384 155.8C416 157.7 448 179.3 480 181.2C512 183 544 165 576 165.8C608 166.7 640 186.3 672 196.2C704 206 736 206 768 207C800 208 832 210 864 203.7C896 197.3 928 182.7 944 175.3L960 168L960 75L944 71.3C928 67.7 896 60.3 864 54C832 47.7 800 42.3 768 45C736 47.7 704 58.3 672 61C640 63.7 608 58.3 576 59.3C544 60.3 512 67.7 480 65C448 62.3 416 49.7 384 45.2C352 40.7 320 44.3 288 51.5C256 58.7 224 69.3 192 70.2C160 71 128 62 96 59.3C64 56.7 32 60.3 16 62.2L0 64Z" fill="#096d9d"></path><path d="M0 233L16 229.5C32 226 64 219 96 220C128 221 160 230 192 236.2C224 242.3 256 245.7 288 237.5C320 229.3 352 209.7 384 212.5C416 215.3 448 240.7 480 243.3C512 246 544 226 576 225C608 224 640 242 672 251C704 260 736 260 768 261C800 262 832 264 864 254.2C896 244.3 928 222.7 944 211.8L960 201L960 166L944 173.3C928 180.7 896 195.3 864 201.7C832 208 800 206 768 205C736 204 704 204 672 194.2C640 184.3 608 164.7 576 163.8C544 163 512 181 480 179.2C448 177.3 416 155.7 384 153.8C352 152 320 170 288 175.3C256 180.7 224 173.3 192 165.2C160 157 128 148 96 149.8C64 151.7 32 164.3 16 170.7L0 177Z" fill="#147ab0"></path><path d="M0 282L16 275.7C32 269.3 64 256.7 96 254.8C128 253 160 262 192 269.2C224 276.3 256 281.7 288 273.5C320 265.3 352 243.7 384 249.2C416 254.7 448 287.3 480 290.2C512 293 544 266 576 261.5C608 257 640 275 672 286.7C704 298.3 736 303.7 768 305.3C800 307 832 305 864 291.5C896 278 928 253 944 240.5L960 228L960 199L944 209.8C928 220.7 896 242.3 864 252.2C832 262 800 260 768 259C736 258 704 258 672 249C640 240 608 222 576 223C544 224 512 244 480 241.3C448 238.7 416 213.3 384 210.5C352 207.7 320 227.3 288 235.5C256 243.7 224 240.3 192 234.2C160 228 128 219 96 218C64 217 32 224 16 227.5L0 231Z" fill="#1f87c3"></path><path d="M0 417L16 416C32 415 64 413 96 410.3C128 407.7 160 404.3 192 398.2C224 392 256 383 288 381.2C320 379.3 352 384.7 384 388.2C416 391.7 448 393.3 480 401.3C512 409.3 544 423.7 576 426.3C608 429 640 420 672 419.2C704 418.3 736 425.7 768 426.7C800 427.7 832 422.3 864 412.5C896 402.7 928 388.3 944 381.2L960 374L960 226L944 238.5C928 251 896 276 864 289.5C832 303 800 305 768 303.3C736 301.7 704 296.3 672 284.7C640 273 608 255 576 259.5C544 264 512 291 480 288.2C448 285.3 416 252.7 384 247.2C352 241.7 320 263.3 288 271.5C256 279.7 224 274.3 192 267.2C160 260 128 251 96 252.8C64 254.7 32 267.3 16 273.7L0 280Z" fill="#2a94d7"></path><path d="M0 487L16 487.8C32 488.7 64 490.3 96 492.2C128 494 160 496 192 494.3C224 492.7 256 487.3 288 486.3C320 485.3 352 488.7 384 490.3C416 492 448 492 480 493C512 494 544 496 576 494.3C608 492.7 640 487.3 672 486.3C704 485.3 736 488.7 768 494C800 499.3 832 506.7 864 505.8C896 505 928 496 944 491.5L960 487L960 372L944 379.2C928 386.3 896 400.7 864 410.5C832 420.3 800 425.7 768 424.7C736 423.7 704 416.3 672 417.2C640 418 608 427 576 424.3C544 421.7 512 407.3 480 399.3C448 391.3 416 389.7 384 386.2C352 382.7 320 377.3 288 379.2C256 381 224 390 192 396.2C160 402.3 128 405.7 96 408.3C64 411 32 413 16 414L0 415Z" fill="#36a2eb"></path><path d="M0 541L16 541C32 541 64 541 96 541C128 541 160 541 192 541C224 541 256 541 288 541C320 541 352 541 384 541C416 541 448 541 480 541C512 541 544 541 576 541C608 541 640 541 672 541C704 541 736 541 768 541C800 541 832 541 864 541C896 541 928 541 944 541L960 541L960 485L944 489.5C928 494 896 503 864 503.8C832 504.7 800 497.3 768 492C736 486.7 704 483.3 672 484.3C640 485.3 608 490.7 576 492.3C544 494 512 492 480 491C448 490 416 490 384 488.3C352 486.7 320 483.3 288 484.3C256 485.3 224 490.7 192 492.3C160 494 128 492 96 490.2C64 488.3 32 486.7 16 485.8L0 485Z" fill="#42afff"></path></svg>