<svg id="visual" viewBox="0 0 900 600" width="900" height="600" xmlns="http://www.w3.org/2000/svg" xmlns:xlink="http://www.w3.org/1999/xlink" version="1.1"><path d="M0 491L15 500C30 509 60 527 90 531C120 535 150 525 180 512.5C210 500 240 485 270 484.7C300 484.3 330 498.7 360 507.8C390 517 420 521 450 513.8C480 506.7 510 488.3 540 492C570 495.7 600 521.3 630 526.3C660 531.3 690 515.7 720 505.5C750 495.3 780 490.7 810 490C840 489.3 870 492.7 885 494.3L900 496L900 601L885 601C870 601 840 601 810 601C780 601 750 601 720 601C690 601 660 601 630 601C600 601 570 601 540 601C510 601 480 601 450 601C420 601 390 601 360 601C330 601 300 601 270 601C240 601 210 601 180 601C150 601 120 601 90 601C60 601 30 601 15 601L0 601Z" fill="#ffffff"></path><path d="M0 493L15 495.5C30 498 60 503 90 506.5C120 510 150 512 180 514.5C210 517 240 520 270 527.8C300 535.7 330 548.3 360 547.2C390 546 420 531 450 522.5C480 514 510 512 540 516.8C570 521.7 600 533.3 630 529.7C660 526 690 507 720 498.2C750 489.3 780 490.7 810 491.5C840 492.3 870 492.7 885 492.8L900 493L900 601L885 601C870 601 840 601 810 601C780 601 750 601 720 601C690 601 660 601 630 601C600 601 570 601 540 601C510 601 480 601 450 601C420 601 390 601 360 601C330 601 300 601 270 601C240 601 210 601 180 601C150 601 120 601 90 601C60 601 30 601 15 601L0 601Z" fill="#fffbf7"></path><path d="M0 547L15 543.3C30 539.7 60 532.3 90 529C120 525.7 150 526.3 180 531.7C210 537 240 547 270 545.2C300 543.3 330 529.7 360 525.3C390 521 420 526 450 532.7C480 539.3 510 547.7 540 550.5C570 553.3 600 550.7 630 545.2C660 539.7 690 531.3 720 526.5C750 521.7 780 520.3 810 527.2C840 534 870 549 885 556.5L900 564L900 601L885 601C870 601 840 601 810 601C780 601 750 601 720 601C690 601 660 601 630 601C600 601 570 601 540 601C510 601 480 601 450 601C420 601 390 601 360 601C330 601 300 601 270 601C240 601 210 601 180 601C150 601 120 601 90 601C60 601 30 601 15 601L0 601Z" fill="#fff7ef"></path><path d="M0 539L15 539.7C30 540.3 60 541.7 90 545C120 548.3 150 553.7 180 553C210 552.3 240 545.7 270 548.3C300 551 330 563 360 567.2C390 571.3 420 567.7 450 560.8C480 554 510 544 540 542.2C570 540.3 600 546.7 630 548.5C660 550.3 690 547.7 720 544.7C750 541.7 780 538.3 810 536.7C840 535 870 535 885 535L900 535L900 601L885 601C870 601 840 601 810 601C780 601 750 601 720 601C690 601 660 601 630 601C600 601 570 601 540 601C510 601 480 601 450 601C420 601 390 601 360 601C330 601 300 601 270 601C240 601 210 601 180 601C150 601 120 601 90 601C60 601 30 601 15 601L0 601Z" fill="#fff3e7"></path><path d="M0 557L15 559.3C30 561.7 60 566.3 90 567C120 567.7 150 564.3 180 562.8C210 561.3 240 561.7 270 565.3C300 569 330 576 360 575.7C390 575.3 420 567.7 450 565.7C480 563.7 510 567.3 540 569.2C570 571 600 571 630 569.3C660 567.7 690 564.3 720 563.3C750 562.3 780 563.7 810 563C840 562.3 870 559.7 885 558.3L900 557L900 601L885 601C870 601 840 601 810 601C780 601 750 601 720 601C690 601 660 601 630 601C600 601 570 601 540 601C510 601 480 601 450 601C420 601 390 601 360 601C330 601 300 601 270 601C240 601 210 601 180 601C150 601 120 601 90 601C60 601 30 601 15 601L0 601Z" fill="#ffefe0"></path></svg>