<svg id="visual" viewBox="0 0 900 600" width="900" height="600" xmlns="http://www.w3.org/2000/svg" xmlns:xlink="http://www.w3.org/1999/xlink" version="1.1"><path d="M0 415L21.5 419.5C43 424 86 433 128.8 438.3C171.7 443.7 214.3 445.3 257.2 438.7C300 432 343 417 385.8 417.2C428.7 417.3 471.3 432.7 514.2 428C557 423.3 600 398.7 642.8 389.8C685.7 381 728.3 388 771.2 386.5C814 385 857 375 878.5 370L900 365L900 601L878.5 601C857 601 814 601 771.2 601C728.3 601 685.7 601 642.8 601C600 601 557 601 514.2 601C471.3 601 428.7 601 385.8 601C343 601 300 601 257.2 601C214.3 601 171.7 601 128.8 601C86 601 43 601 21.5 601L0 601Z" fill="#fadb69"></path><path d="M0 404L21.5 413.5C43 423 86 442 128.8 454.7C171.7 467.3 214.3 473.7 257.2 476.3C300 479 343 478 385.8 476.2C428.7 474.3 471.3 471.7 514.2 463.2C557 454.7 600 440.3 642.8 432.3C685.7 424.3 728.3 422.7 771.2 422.5C814 422.3 857 423.7 878.5 424.3L900 425L900 601L878.5 601C857 601 814 601 771.2 601C728.3 601 685.7 601 642.8 601C600 601 557 601 514.2 601C471.3 601 428.7 601 385.8 601C343 601 300 601 257.2 601C214.3 601 171.7 601 128.8 601C86 601 43 601 21.5 601L0 601Z" fill="#fdae53"></path><path d="M0 475L21.5 472.5C43 470 86 465 128.8 469.2C171.7 473.3 214.3 486.7 257.2 483C300 479.3 343 458.7 385.8 457.8C428.7 457 471.3 476 514.2 486.2C557 496.3 600 497.7 642.8 492.7C685.7 487.7 728.3 476.3 771.2 470.5C814 464.7 857 464.3 878.5 464.2L900 464L900 601L878.5 601C857 601 814 601 771.2 601C728.3 601 685.7 601 642.8 601C600 601 557 601 514.2 601C471.3 601 428.7 601 385.8 601C343 601 300 601 257.2 601C214.3 601 171.7 601 128.8 601C86 601 43 601 21.5 601L0 601Z" fill="#f77f51"></path><path d="M0 498L21.5 502.7C43 507.3 86 516.7 128.8 522.3C171.7 528 214.3 530 257.2 529.8C300 529.7 343 527.3 385.8 527.5C428.7 527.7 471.3 530.3 514.2 529.8C557 529.3 600 525.7 642.8 517.5C685.7 509.3 728.3 496.7 771.2 490.5C814 484.3 857 484.7 878.5 484.8L900 485L900 601L878.5 601C857 601 814 601 771.2 601C728.3 601 685.7 601 642.8 601C600 601 557 601 514.2 601C471.3 601 428.7 601 385.8 601C343 601 300 601 257.2 601C214.3 601 171.7 601 128.8 601C86 601 43 601 21.5 601L0 601Z" fill="#e5515a"></path><path d="M0 528L21.5 529C43 530 86 532 128.8 535.8C171.7 539.7 214.3 545.3 257.2 550.7C300 556 343 561 385.8 562.2C428.7 563.3 471.3 560.7 514.2 556.3C557 552 600 546 642.8 544.8C685.7 543.7 728.3 547.3 771.2 549.7C814 552 857 553 878.5 553.5L900 554L900 601L878.5 601C857 601 814 601 771.2 601C728.3 601 685.7 601 642.8 601C600 601 557 601 514.2 601C471.3 601 428.7 601 385.8 601C343 601 300 601 257.2 601C214.3 601 171.7 601 128.8 601C86 601 43 601 21.5 601L0 601Z" fill="#c62368"></path></svg>