<svg id="visual" viewBox="0 0 900 600" width="900" height="600" xmlns="http://www.w3.org/2000/svg" xmlns:xlink="http://www.w3.org/1999/xlink" version="1.1"><path d="M0 49L15 47C30 45 60 41 90 46C120 51 150 65 180 69C210 73 240 67 270 69C300 71 330 81 360 82C390 83 420 75 450 67C480 59 510 51 540 52C570 53 600 63 630 72C660 81 690 89 720 91C750 93 780 89 810 87C840 85 870 85 885 85L900 85L900 0L885 0C870 0 840 0 810 0C780 0 750 0 720 0C690 0 660 0 630 0C600 0 570 0 540 0C510 0 480 0 450 0C420 0 390 0 360 0C330 0 300 0 270 0C240 0 210 0 180 0C150 0 120 0 90 0C60 0 30 0 15 0L0 0Z" fill="#6198ff"></path><path d="M0 169L15 179C30 189 60 209 90 222C120 235 150 241 180 255C210 269 240 291 270 281C300 271 330 229 360 221C390 213 420 239 450 238C480 237 510 209 540 218C570 227 600 273 630 290C660 307 690 295 720 291C750 287 780 291 810 295C840 299 870 303 885 305L900 307L900 83L885 83C870 83 840 83 810 85C780 87 750 91 720 89C690 87 660 79 630 70C600 61 570 51 540 50C510 49 480 57 450 65C420 73 390 81 360 80C330 79 300 69 270 67C240 65 210 71 180 67C150 63 120 49 90 44C60 39 30 43 15 45L0 47Z" fill="#3c80ff"></path><path d="M0 265L15 266C30 267 60 269 90 277C120 285 150 299 180 325C210 351 240 389 270 383C300 377 330 327 360 317C390 307 420 337 450 339C480 341 510 315 540 325C570 335 600 381 630 390C660 399 690 371 720 363C750 355 780 367 810 376C840 385 870 391 885 394L900 397L900 305L885 303C870 301 840 297 810 293C780 289 750 285 720 289C690 293 660 305 630 288C600 271 570 225 540 216C510 207 480 235 450 236C420 237 390 211 360 219C330 227 300 269 270 279C240 289 210 267 180 253C150 239 120 233 90 220C60 207 30 187 15 177L0 167Z" fill="#0066ff"></path><path d="M0 493L15 495C30 497 60 501 90 498C120 495 150 485 180 488C210 491 240 507 270 509C300 511 330 499 360 497C390 495 420 503 450 504C480 505 510 499 540 498C570 497 600 501 630 502C660 503 690 501 720 504C750 507 780 515 810 522C840 529 870 535 885 538L900 541L900 395L885 392C870 389 840 383 810 374C780 365 750 353 720 361C690 369 660 397 630 388C600 379 570 333 540 323C510 313 480 339 450 337C420 335 390 305 360 315C330 325 300 375 270 381C240 387 210 349 180 323C150 297 120 283 90 275C60 267 30 265 15 264L0 263Z" fill="#0059dd"></path><path d="M0 601L15 601C30 601 60 601 90 601C120 601 150 601 180 601C210 601 240 601 270 601C300 601 330 601 360 601C390 601 420 601 450 601C480 601 510 601 540 601C570 601 600 601 630 601C660 601 690 601 720 601C750 601 780 601 810 601C840 601 870 601 885 601L900 601L900 539L885 536C870 533 840 527 810 520C780 513 750 505 720 502C690 499 660 501 630 500C600 499 570 495 540 496C510 497 480 503 450 502C420 501 390 493 360 495C330 497 300 509 270 507C240 505 210 489 180 486C150 483 120 493 90 496C60 499 30 495 15 493L0 491Z" fill="#004cbb"></path></svg>