<svg width="311" height="266" viewBox="0 0 311 266" fill="none" xmlns="http://www.w3.org/2000/svg">
<path d="M243.763 261.531H1.92154C1.42463 261.541 0.951376 261.75 0.603416 262.114C0.255457 262.478 0.0605469 262.967 0.0605469 263.476C0.0605469 263.985 0.255457 264.474 0.603416 264.838C0.951376 265.202 1.42463 265.411 1.92154 265.421H243.763C244.26 265.411 244.733 265.202 245.081 264.838C245.429 264.474 245.624 263.985 245.624 263.476C245.624 262.967 245.429 262.478 245.081 262.114C244.733 261.75 244.26 261.541 243.763 261.531Z" fill="#CECECE"/>
<path d="M104.433 245.878L103.697 228.833H102.699V225.45H101.985V203.644H96.1288V215.298H91.5018C89.9892 215.3 88.5391 215.917 87.4696 217.013C86.4001 218.109 85.7986 219.596 85.7971 221.146V222.656C84.6141 224.395 83.8662 226.405 83.6195 228.51C83.6131 228.595 83.6239 228.681 83.6512 228.761C83.6786 228.842 83.7218 228.916 83.7783 228.978C83.8348 229.041 83.9033 229.091 83.9795 229.125C84.0558 229.16 84.1381 229.177 84.2213 229.178H89.2071C89.2904 229.178 89.3728 229.16 89.4491 229.126C89.5254 229.091 89.594 229.041 89.6506 228.979C89.7071 228.916 89.7505 228.842 89.7779 228.762C89.8052 228.681 89.8161 228.595 89.8097 228.51C89.5628 226.405 88.8145 224.395 87.6306 222.657V221.147C87.6318 220.095 88.04 219.087 88.7658 218.343C89.4916 217.599 90.4755 217.181 91.5018 217.18H96.1288V225.451H95.4216V228.834H94.4242L93.6875 245.879H95.4187V255.529H102.703V245.878H104.433Z" fill="#737373"/>
<path d="M98.9486 244.878C98.9486 244.878 75.7436 245.566 61.9753 250.866C61.5011 251.048 61.1111 251.407 60.883 251.87C60.6549 252.333 60.6054 252.868 60.7444 253.367L61.347 255.528H67.7051V254.253C78.0299 252.481 88.48 251.587 98.9486 251.581V244.878Z" fill="#B2B2B2"/>
<path d="M67.7051 256.648V255.528H61.3469V262.048H63.5437C63.7293 262.85 64.1315 263.581 64.7042 264.16C65.2769 264.738 65.9969 265.139 66.7818 265.317C67.5667 265.495 68.3846 265.443 69.1419 265.167C69.8992 264.89 70.5652 264.401 71.0636 263.754C71.562 263.108 71.8727 262.331 71.9599 261.512C72.0472 260.693 71.9075 259.865 71.557 259.123C71.2064 258.382 70.6592 257.757 69.9779 257.319C69.2967 256.882 68.509 256.65 67.7051 256.651" fill="#737373"/>
<path d="M136.55 256.648V255.528H130.192V262.048H132.39C132.575 262.85 132.977 263.581 133.55 264.16C134.123 264.738 134.843 265.139 135.628 265.317C136.413 265.495 137.231 265.443 137.988 265.167C138.745 264.89 139.411 264.401 139.91 263.754C140.408 263.108 140.719 262.331 140.806 261.512C140.893 260.693 140.753 259.865 140.403 259.123C140.052 258.382 139.505 257.757 138.824 257.319C138.143 256.882 137.355 256.65 136.551 256.651" fill="#737373"/>
<path d="M135.921 250.867C122.151 245.567 98.9486 244.878 98.9486 244.878L89.5472 249.213C88.9347 249.495 88.4337 249.981 88.1259 250.593C87.8182 251.205 87.7219 251.905 87.8529 252.58L88.247 254.619H94.2251V253.277L98.9478 251.584C109.416 251.59 119.866 252.485 130.191 254.258V255.533H136.549L137.152 253.372C137.291 252.873 137.241 252.339 137.013 251.875C136.784 251.412 136.395 251.054 135.92 250.872" fill="#D2D2D2"/>
<path d="M94.2259 256.648V254.615H88.1852V256.648H86.717V265.421H95.5784V256.648H94.2259Z" fill="#737373"/>
<path d="M148.465 137.702L156.238 149.378L148.465 156.522L138.417 144.627L141.319 136.093L148.465 137.702Z" fill="#543829"/>
<path d="M174.911 265.421H170.912L168.96 197.943L171.485 191.612L176.61 206.651L174.911 265.421Z" fill="#B2B2B2"/>
<path d="M170.255 248.23L174.744 256.092H159.972L155.718 247.163L167.366 245.659L170.255 248.23Z" fill="#5B5B5B"/>
<path d="M119.839 173.377H133.93C135.652 173.377 137.304 174.079 138.522 175.327C139.74 176.575 140.424 178.268 140.425 180.033V203.479C140.425 204.731 140.145 205.967 139.607 207.092C139.069 208.217 138.287 209.2 137.321 209.967L136.567 210.566C136.447 210.663 136.359 210.795 136.316 210.945C136.272 211.096 136.276 211.256 136.325 211.404C136.374 211.552 136.468 211.681 136.591 211.772C136.715 211.864 136.864 211.913 137.017 211.914H140.008L142.461 209.967C143.427 209.2 144.209 208.216 144.747 207.092C145.285 205.967 145.564 204.731 145.564 203.479V178.905C145.564 177.14 144.88 175.447 143.662 174.199C142.444 172.95 140.792 172.249 139.07 172.249H114.699C113.947 172.249 113.202 172.402 112.508 172.699C111.814 172.996 111.184 173.432 110.655 173.98C110.126 174.528 109.708 175.179 109.426 175.894C109.145 176.609 109.004 177.374 109.012 178.145L109.036 181.343C109.038 181.554 109.122 181.756 109.269 181.905C109.415 182.054 109.613 182.137 109.82 182.137H113.356C113.465 182.137 113.573 182.115 113.673 182.072C113.774 182.029 113.865 181.966 113.941 181.887C114.018 181.807 114.078 181.713 114.119 181.609C114.16 181.506 114.18 181.395 114.179 181.283L114.156 179.274C114.148 178.502 114.288 177.737 114.57 177.022C114.852 176.307 115.269 175.657 115.798 175.108C116.327 174.56 116.957 174.125 117.651 173.827C118.346 173.53 119.09 173.377 119.843 173.377" fill="#B2B2B2"/>
<path d="M110.481 179.273L110.501 181.477C110.502 181.564 110.486 181.649 110.454 181.729C110.423 181.809 110.376 181.882 110.317 181.943C110.257 182.005 110.187 182.054 110.109 182.087C110.031 182.12 109.948 182.137 109.864 182.137H114.947C115.039 182.137 115.13 182.118 115.216 182.082C115.301 182.046 115.378 181.992 115.443 181.925C115.508 181.858 115.559 181.778 115.594 181.69C115.628 181.602 115.645 181.508 115.644 181.414L115.62 179.273C115.612 178.502 115.752 177.737 116.034 177.022C116.316 176.308 116.734 175.657 117.263 175.109C117.792 174.56 118.421 174.125 119.116 173.828C119.81 173.531 120.555 173.378 121.307 173.378H116.167C115.415 173.378 114.67 173.53 113.976 173.827C113.281 174.125 112.651 174.56 112.122 175.108C111.593 175.657 111.176 176.307 110.894 177.022C110.612 177.737 110.472 178.502 110.48 179.273" fill="#737373"/>
<path d="M140.539 172.249H135.398C136.251 172.249 137.096 172.421 137.884 172.755C138.672 173.09 139.388 173.58 139.991 174.198C140.594 174.816 141.072 175.55 141.398 176.358C141.725 177.165 141.893 178.031 141.893 178.905V204.232C141.893 205.484 141.613 206.72 141.076 207.845C140.538 208.969 139.756 209.953 138.79 210.72L137.285 211.914H141.871C142.23 211.915 142.578 211.793 142.862 211.567L143.929 210.72C144.896 209.953 145.678 208.969 146.216 207.845C146.754 206.72 147.033 205.484 147.033 204.232V178.905C147.033 177.14 146.349 175.447 145.131 174.199C143.913 172.95 142.261 172.249 140.539 172.249Z" fill="#D2D2D2"/>
<path d="M160.463 254.615C159.404 258.127 158.744 261.754 158.499 265.421H190.986C190.986 265.421 190 257.593 182.092 257.593C174.185 257.593 172.746 249.741 172.746 249.741C171.822 250.153 170.994 250.762 170.319 251.528C169.643 252.294 169.134 253.198 168.827 254.182L168.694 254.609L160.463 254.615Z" fill="#333333"/>
<path d="M71.8651 187.67L65.2182 129.728C65.1659 129.262 65.213 128.789 65.3562 128.343C65.4994 127.897 65.7353 127.488 66.0477 127.145L66.3262 126.838C66.9044 126.202 67.6229 125.717 68.4215 125.424C69.2201 125.131 70.0756 125.038 70.9163 125.154C85.5645 127.165 100.417 127.038 115.03 124.776L128.113 208.065H75.4056C74.049 208.066 72.7141 207.717 71.5231 207.052C70.3322 206.386 69.3234 205.425 68.5891 204.256C67.8549 203.087 67.4187 201.747 67.3206 200.361C67.2226 198.974 67.4658 197.584 68.0278 196.319L71.8651 187.67Z" fill="#E0E0E0"/>
<path d="M123.349 185.902V184.398H74.7079C74.9226 180.398 74.8406 176.388 74.4626 172.401C78.3485 172.488 87.8367 172.671 98.9766 172.671C106.284 172.671 114.299 172.596 121.902 172.355L121.857 170.852C102.518 171.456 80.5084 171.034 74.3233 170.893L73.0784 159.293C76.7735 159.605 87.973 160.459 99.9431 160.459C107.067 160.541 114.188 160.113 121.253 159.176L121.038 157.688C104.186 160.242 78.2505 158.23 72.9155 157.77L71.7803 147.205C74.7329 147.466 86.387 148.419 98.9368 148.419C106.029 148.5 113.119 148.071 120.153 147.136L119.938 145.648C102.381 148.308 75.2898 146.012 71.6168 145.681L70.5339 135.598C74.1244 135.918 84.6042 136.754 96.0152 136.754C102.98 136.829 109.942 136.4 116.848 135.471L116.634 133.983C99.8709 136.523 75.5698 134.545 70.3711 134.073L69.4134 125.164C68.7423 125.171 68.0815 125.334 67.4809 125.641C66.8803 125.948 66.3557 126.391 65.9467 126.936C65.6561 127.277 65.4383 127.676 65.3071 128.108C65.1759 128.54 65.1343 128.996 65.185 129.445L68.942 174.566C69.4813 181.048 69.0546 187.576 67.6764 193.926L66.1581 200.92C65.9107 202.06 65.9162 203.242 66.1745 204.38C66.4327 205.518 66.9369 206.582 67.65 207.493C68.363 208.404 69.2667 209.14 70.2942 209.645C71.3218 210.15 72.4469 210.413 73.5866 210.413H101.22C104.084 210.413 106.908 211.098 109.467 212.414L110.761 213.081C111.218 213.316 111.737 213.395 112.24 213.305C112.744 213.216 113.207 212.964 113.56 212.585C113.787 212.342 113.957 212.051 114.06 211.733C114.163 211.414 114.196 211.076 114.156 210.743C114.116 210.41 114.004 210.09 113.828 209.807C113.653 209.523 113.418 209.283 113.141 209.104C109.335 206.614 104.913 205.29 100.397 205.291H98.9449V205.149L74.9333 205.387C74.48 205.391 74.0318 205.29 73.6222 205.091C73.2127 204.892 72.8526 204.6 72.5689 204.238C72.2852 203.875 72.0854 203.452 71.9846 202.999C71.8837 202.546 71.8844 202.076 71.9866 201.623L72.6496 198.691H121.144V197.194H72.9774C73.7816 193.475 74.3232 189.702 74.5981 185.904L123.349 185.902Z" fill="#B2B2B2"/>
<path d="M130.153 188.662L151.138 203.041C153.096 204.381 154.482 206.437 155.012 208.788C156.795 216.715 164.51 233.023 170.255 248.231C167.732 250.873 158.499 255.584 158.499 255.584C149.823 238.422 141.854 220.448 141.854 220.448L137.669 219.065C123.237 214.293 110.471 205.323 100.925 193.248L111.473 174.317L130.153 188.662Z" fill="#877861"/>
<path d="M107.35 181.461L82.9916 176.573L78.4243 186.349C78.4245 190.782 79.8417 195.092 82.4589 198.621C85.0762 202.15 88.7495 204.704 92.9168 205.89L118.944 213.92C111.143 230.414 106.324 250.903 106.324 250.903C106.324 250.903 109.157 254.23 116.797 254.23C123.348 243.1 133.372 227.523 141.882 215.169C144.637 211.167 144.664 205.882 141.054 202.678C129.238 192.183 107.349 181.462 107.349 181.462" fill="#A89A86"/>
<path d="M137.646 121.676C135.849 118.827 133.089 116.757 129.896 115.863L116.783 112.168L111.878 113.074C96.3622 115.931 84.4584 126.38 80.7906 149.314L77.1809 190.009C77.1809 190.009 91.0744 179.823 107.657 186.343C115.181 189.286 123.371 189.958 131.256 188.28L128.544 175.566C127.714 171.67 127.933 167.617 129.178 163.839L135.448 144.813C136.533 142.997 136.86 145.435 137.272 145.934C139.621 145.509 141.847 144.549 143.785 143.123C145.723 141.698 147.324 139.844 148.469 137.7L137.646 121.676Z" fill="#CC5425"/>
<path d="M133.493 124.336L130.473 118.01L126.987 123.564L125.179 131.582L130.873 126.618C131.922 127.897 133.344 129.705 134.621 131.582C135.08 128.51 133.49 124.334 133.49 124.334" fill="#A3361D"/>
<path d="M100.691 150.631H102.199C102.77 150.631 103.333 150.492 103.842 150.224C104.35 149.957 104.789 149.569 105.122 149.093L106.282 147.432L100.872 143.681L100.691 150.631Z" fill="#8E311B"/>
<path d="M100.874 146.307L111.489 161H147.837L147.021 154.139L119.675 150.443L115.646 139.911L109.218 138.293L101.945 142.238L100.874 146.307Z" fill="#755144"/>
<path d="M129.006 76.3935C124.957 76.0552 120.943 77.379 117.847 80.0739C114.75 82.7688 112.825 86.6139 112.495 90.7634L112.215 94.281C111.793 93.9629 111.293 93.7703 110.771 93.7246C110.373 93.6912 109.972 93.7432 109.594 93.8771C109.217 94.011 108.871 94.2239 108.578 94.5023C108.285 94.7807 108.052 95.1185 107.893 95.4943C107.734 95.87 107.654 96.2755 107.656 96.6849L107.676 100.103C107.683 101.194 108.068 102.247 108.765 103.072C109.461 103.898 110.421 104.442 111.473 104.606C111.557 108.489 113.042 112.202 115.64 115.029C118.239 117.855 121.767 119.595 125.544 119.911L129.027 120.202C132.152 120.463 135.25 119.441 137.64 117.361C140.03 115.281 141.516 112.314 141.771 109.111L143.028 93.3161C143.358 89.1664 142.066 85.0522 139.437 81.8786C136.807 78.705 133.055 76.732 129.006 76.3935Z" fill="#755144"/>
<path d="M139.729 95.6399C139.146 95.6312 138.567 95.746 138.029 95.9771C137.491 96.2082 137.005 96.5506 136.602 96.9828C136.199 97.4151 135.887 97.928 135.686 98.4893C135.486 99.0507 135.4 99.6485 135.435 100.245L135.713 106.512C135.727 106.744 135.692 106.977 135.612 107.194C135.532 107.412 135.407 107.61 135.246 107.774C135.086 107.939 134.893 108.067 134.681 108.149C134.468 108.231 134.241 108.266 134.015 108.252L130.867 107.989C130.867 107.989 133.349 115.312 129.025 120.198L125.542 119.906C123.037 119.697 120.621 118.858 118.508 117.463C116.394 116.069 114.649 114.162 113.426 111.912L113.417 111.921L115.028 118.414L123.868 125.436L125.178 131.574L127.987 125.06L132.162 120.021C134.709 119.533 137.029 118.2 138.764 116.228C140.5 114.256 141.555 111.754 141.767 109.108L142.831 95.7403L139.729 95.6399Z" fill="#543829"/>
<path d="M114.23 113.228C113.601 112.311 113.07 111.328 112.645 110.296C112.125 111.399 111.452 112.42 110.647 113.326C110.647 113.326 110.404 125.909 117.985 134.18C120.577 127.008 123.871 125.44 123.871 125.44C123.871 125.44 116.784 118.985 114.23 113.228Z" fill="#DD6B4B"/>
<path d="M126.322 99.473C126.295 99.8056 126.173 100.123 125.971 100.384C125.769 100.646 125.495 100.84 125.185 100.942C124.875 101.045 124.543 101.05 124.23 100.959C123.917 100.868 123.637 100.683 123.426 100.429C123.215 100.174 123.083 99.8618 123.045 99.5303C123.008 99.1988 123.067 98.8633 123.215 98.5664C123.364 98.2694 123.595 98.0242 123.88 97.8619C124.164 97.6995 124.489 97.6272 124.814 97.6542C125.029 97.6721 125.239 97.7334 125.432 97.8345C125.624 97.9356 125.795 98.0745 125.935 98.2434C126.075 98.4123 126.182 98.6079 126.248 98.8188C126.314 99.0298 126.339 99.2521 126.322 99.473Z" fill="#020505"/>
<path d="M140.786 100.721C140.76 101.054 140.638 101.371 140.435 101.633C140.233 101.895 139.959 102.089 139.649 102.191C139.339 102.293 139.006 102.299 138.693 102.208C138.38 102.116 138.1 101.932 137.889 101.677C137.678 101.423 137.546 101.11 137.508 100.778C137.471 100.446 137.53 100.111 137.679 99.8136C137.828 99.5165 138.059 99.2713 138.344 99.109C138.628 98.9466 138.954 98.8745 139.278 98.9016C139.714 98.9379 140.117 99.1501 140.4 99.4913C140.683 99.8325 140.822 100.275 140.786 100.721Z" fill="#020505"/>
<path d="M125.183 111.301L135.361 112.152L133.28 113.12C132.337 113.557 131.303 113.749 130.27 113.677C129.238 113.604 128.239 113.271 127.363 112.707L125.183 111.301Z" fill="white"/>
<path d="M142.073 74.5386C141.084 73.1886 133.233 73.0286 127.339 73.0286C123.607 73.0349 119.892 73.5425 116.289 74.5386C114.751 75.0656 113.445 76.136 112.606 77.5586C111.943 79.004 111.448 80.5245 111.133 82.0886C110.396 85.8636 111.211 87.9066 111.133 88.8836C111.095 89.3532 111.248 92.5997 111.153 93.7979C111.839 93.9502 112.446 94.3545 112.861 94.9343C113.276 95.5141 113.469 96.2295 113.405 96.9455L113.091 100.356L115.681 100.572L115.334 90.9651C115.314 90.3966 115.422 89.831 115.65 89.3125C115.879 88.7939 116.221 88.3365 116.65 87.9761L118.59 86.3468C119.63 85.4732 120.903 84.9397 122.242 84.815C123.582 84.6904 124.927 84.9804 126.104 85.6476L130.008 87.8605C130.503 88.1412 131.051 88.3108 131.615 88.3581L133.785 88.5393C135.086 88.6478 136.394 88.4408 137.602 87.9352C138.81 87.4295 139.886 86.6394 140.741 85.6288L141.336 84.3558C141.336 84.3558 144.283 77.5586 142.073 74.5386Z" fill="#28200F"/>
<path d="M121.621 96.33C121.48 96.3302 121.342 96.2853 121.227 96.2016C121.111 96.1179 121.024 95.9995 120.977 95.8628C120.931 95.7261 120.926 95.5779 120.965 95.4387C121.005 95.2994 121.085 95.1761 121.195 95.0858C121.312 94.9899 124.08 92.7679 127.24 94.0288C127.323 94.0621 127.399 94.112 127.464 94.1755C127.528 94.2391 127.58 94.315 127.616 94.399C127.652 94.4831 127.672 94.5735 127.673 94.6652C127.675 94.757 127.659 94.8482 127.627 94.9336C127.594 95.0191 127.546 95.0972 127.484 95.1634C127.422 95.2295 127.348 95.2826 127.266 95.3194C127.184 95.3563 127.095 95.3762 127.006 95.3781C126.916 95.38 126.827 95.3638 126.744 95.3304C124.313 94.3557 122.068 96.1564 122.046 96.1745C121.925 96.2729 121.775 96.3262 121.621 96.3255" fill="#28200F"/>
<path d="M137.132 96.8502C136.985 96.8489 136.843 96.7994 136.727 96.709C136.61 96.6187 136.525 96.4922 136.483 96.3484C136.442 96.2046 136.447 96.0509 136.497 95.9102C136.548 95.7694 136.641 95.649 136.763 95.5667C139.616 93.6898 142.759 95.31 142.891 95.381C143.052 95.4656 143.173 95.6122 143.228 95.7886C143.284 95.9649 143.268 96.1566 143.186 96.3213C143.103 96.4861 142.96 96.6106 142.788 96.6673C142.616 96.724 142.429 96.7083 142.268 96.6237C142.228 96.6018 139.674 95.3123 137.499 96.743C137.389 96.8157 137.262 96.8542 137.131 96.854" fill="#28200F"/>
<path d="M112.518 101.732C112.382 101.568 112.281 101.377 112.221 101.171C112.16 100.965 112.143 100.749 112.169 100.535C112.195 100.322 112.264 100.116 112.371 99.9316C112.479 99.7469 112.622 99.5872 112.793 99.4625L113.116 99.2277L113.199 99.3168L113.328 97.9019C113.356 97.6042 113.324 97.3038 113.234 97.019C113.145 96.7343 113 96.4711 112.809 96.2455C112.617 96.0199 112.383 95.8366 112.12 95.7067C111.857 95.5767 111.571 95.5029 111.28 95.4897C110.988 95.4765 110.697 95.5242 110.424 95.6298C110.151 95.7354 109.902 95.8968 109.691 96.1042C109.481 96.3116 109.314 96.5606 109.201 96.8362C109.087 97.1117 109.03 97.408 109.031 97.7071L109.047 100.263C109.051 101.12 109.369 101.945 109.938 102.574C110.507 103.203 111.285 103.591 112.119 103.66L112.794 103.717L112.868 102.886C112.887 102.68 112.865 102.472 112.804 102.275C112.744 102.077 112.645 101.894 112.514 101.736" fill="#543829"/>
<path d="M122.282 134.935C122.282 135.196 122.357 135.451 122.498 135.667C122.639 135.884 122.84 136.053 123.074 136.152C123.309 136.252 123.568 136.278 123.817 136.228C124.066 136.177 124.295 136.051 124.475 135.867C124.655 135.683 124.777 135.448 124.827 135.193C124.876 134.937 124.851 134.672 124.753 134.432C124.656 134.191 124.491 133.986 124.28 133.841C124.068 133.696 123.82 133.619 123.566 133.619C123.225 133.619 122.899 133.758 122.658 134.005C122.417 134.252 122.282 134.586 122.282 134.935Z" fill="#B54321"/>
<path d="M114.027 135.598C111.697 129.294 107.53 119.309 101.034 119.752C99.1603 119.753 97.3498 120.448 95.9372 121.71C94.5246 122.972 93.6053 124.715 93.3493 126.618C91.9916 131.105 94.8307 138.724 97.3634 144.176C99.0938 140.769 103.8 134.267 114.027 135.598Z" fill="#DD6B4B"/>
<path d="M114.464 136.794C103.591 135.09 99.2058 142.655 97.9734 145.459C99.4534 148.516 100.691 150.632 100.691 150.632C100.691 150.632 102.219 138.782 115.645 139.911C115.351 139.251 114.956 138.147 114.467 136.793" fill="#DD6B4B"/>
<path d="M147.811 134.453L146.844 133.915C145.232 136.689 143.016 139.044 140.369 140.795C139.908 138.807 139.328 136.849 138.634 134.933L135.459 144.823L136.675 146.307C138.163 146.009 139.607 145.512 140.969 144.829C140.919 143.88 140.802 142.935 140.618 142.003C143.035 140.368 146.021 137.836 147.813 134.453" fill="#A3361D"/>
<path d="M106.958 179.08L113.01 182.716C115.512 184.219 118.336 185.066 121.234 185.181C124.131 185.296 127.011 184.676 129.618 183.376L130.191 183.09L106.958 179.08Z" fill="#A3361D"/>
<path d="M118.941 213.92C120.676 211.592 122.658 209.47 124.85 207.591C118.937 206.776 118.391 211.79 118.941 213.92Z" fill="#877861"/>
<path d="M82.0237 173.377H96.1147C97.837 173.377 99.4888 174.079 100.707 175.327C101.925 176.575 102.609 178.268 102.609 180.033V203.479C102.609 204.731 102.329 205.967 101.792 207.092C101.254 208.216 100.472 209.2 99.5063 209.967L98.7512 210.566C98.6311 210.663 98.5434 210.795 98.5001 210.945C98.4568 211.096 98.4601 211.256 98.5096 211.404C98.559 211.552 98.6521 211.681 98.7761 211.772C98.9 211.864 99.0486 211.913 99.2013 211.914H102.193L104.646 209.967C105.612 209.2 106.394 208.217 106.932 207.092C107.469 205.967 107.749 204.731 107.749 203.479V178.905C107.749 177.14 107.065 175.447 105.847 174.199C104.629 172.95 102.977 172.249 101.254 172.249H76.884C76.1316 172.249 75.3867 172.402 74.6925 172.699C73.9982 172.996 73.3684 173.432 72.8395 173.98C72.3106 174.528 71.8932 175.179 71.6113 175.894C71.3295 176.609 71.1889 177.374 71.1977 178.145L71.2205 181.343C71.2228 181.554 71.3064 181.756 71.4532 181.905C71.5999 182.054 71.7979 182.137 72.0043 182.137H75.5403C75.6492 182.137 75.7569 182.115 75.8574 182.072C75.9578 182.029 76.0489 181.966 76.1253 181.886C76.2018 181.807 76.2621 181.713 76.3028 181.609C76.3435 181.506 76.3638 181.395 76.3624 181.283L76.3403 179.274C76.3315 178.502 76.4722 177.737 76.754 177.022C77.0358 176.307 77.4532 175.657 77.9821 175.108C78.511 174.56 79.1408 174.125 79.8351 173.827C80.5294 173.53 81.2743 173.377 82.0266 173.377" fill="#B2B2B2"/>
<path d="M72.6659 179.273L72.6858 181.477C72.6867 181.564 72.6708 181.649 72.6392 181.729C72.6076 181.809 72.5608 181.882 72.5015 181.943C72.4423 182.005 72.3717 182.054 72.294 182.087C72.2162 182.12 72.1328 182.137 72.0486 182.137H77.1316C77.2239 182.137 77.3153 182.118 77.4005 182.082C77.4856 182.046 77.5629 181.992 77.6278 181.925C77.6927 181.858 77.7439 181.778 77.7785 181.69C77.813 181.602 77.8303 181.508 77.8292 181.414L77.8056 179.273C77.7969 178.502 77.9375 177.737 78.2193 177.022C78.5012 176.307 78.9186 175.657 79.4475 175.109C79.9764 174.56 80.6062 174.125 81.3005 173.828C81.9948 173.531 82.7396 173.378 83.492 173.378H78.353C77.6006 173.378 76.8556 173.53 76.1613 173.827C75.4669 174.125 74.837 174.56 74.308 175.108C73.7791 175.657 73.3615 176.307 73.0797 177.022C72.7978 177.737 72.6571 178.502 72.6659 179.273Z" fill="#737373"/>
<path d="M102.723 172.249H97.5828C98.4357 172.249 99.2802 172.421 100.068 172.755C100.856 173.09 101.572 173.58 102.175 174.198C102.778 174.816 103.257 175.55 103.583 176.358C103.909 177.165 104.077 178.031 104.077 178.905V204.232C104.077 205.484 103.798 206.72 103.26 207.845C102.722 208.969 101.94 209.953 100.974 210.72L99.4731 211.916H104.059C104.418 211.916 104.767 211.794 105.05 211.569L106.118 210.722C107.084 209.954 107.866 208.971 108.404 207.846C108.942 206.722 109.221 205.486 109.221 204.233V178.905C109.221 177.14 108.537 175.447 107.319 174.199C106.101 172.95 104.449 172.249 102.727 172.249" fill="#D2D2D2"/>
<path d="M155.386 250.253C159.945 247.789 164.364 245.06 168.619 242.08L171.255 248.824C167.284 251.756 163.099 254.372 158.738 256.648L155.386 250.253Z" fill="#968671"/>
<path d="M103.951 265.421L104.021 263.609C104.104 261.438 104.704 259.32 105.768 257.441C106.921 255.402 108.494 252.705 109.82 250.707L110.125 250.25H119.667L121.332 265.419L103.951 265.421Z" fill="#333333"/>
<path d="M106.159 248.778C106.159 248.778 113.72 246.915 121.027 248.619C120.725 250.822 120.552 253.042 120.511 255.266C115.556 254.609 110.522 255 105.72 256.413L106.159 248.778Z" fill="#B7A997"/>
<path d="M103.951 265.421H122.826V263.685C122.828 263.435 122.799 263.186 122.737 262.944C122.328 261.419 121.443 260.075 120.216 259.116C118.989 258.158 117.49 257.639 115.947 257.639H112.017C110.687 257.639 109.385 258.024 108.26 258.751C107.135 259.478 106.234 260.516 105.661 261.746L103.951 265.421Z" fill="#333333"/>
<path d="M177.48 176.573L176.61 206.651L168.961 197.943L168.342 176.573H177.48Z" fill="#939393"/>
<path d="M254.925 163.038H91.3049V176.573H254.925V163.038Z" fill="#C1A37C"/>
<path d="M91.305 163.038H21.6848V176.573H91.305V163.038Z" fill="#D8BA8F"/>
<path d="M112.978 265.421H108.981L106.41 176.573H115.549L112.978 265.421Z" fill="#E6E6E6"/>
<path d="M44.0051 265.421H40.0072L37.437 176.573H46.5754L44.0051 265.421Z" fill="#B2B2B2"/>
<path d="M236.54 265.421H232.542L229.972 176.573H239.111L236.54 265.421Z" fill="#E6E6E6"/>
<path d="M203.638 129.444C202.843 128.911 201.914 128.628 200.964 128.628H151.791C150.817 128.628 149.866 128.93 149.063 129.494C148.26 130.058 147.642 130.858 147.29 131.788L136.813 159.043C136.692 159.365 136.478 159.641 136.201 159.836C135.923 160.031 135.595 160.135 135.258 160.135H106.749V163.042H138.452L194.616 159.543L195.065 158.359L204.363 129.933L203.638 129.444Z" fill="#B2B2B2"/>
<path d="M139.781 159.539L139.459 160.389C139.163 161.17 138.644 161.84 137.97 162.313C137.295 162.786 136.497 163.038 135.68 163.038H193.288L194.614 159.539H139.781Z" fill="#D2D2D2"/>
<path d="M203.736 129.785H153.731C152.947 129.785 152.182 130.027 151.535 130.481C150.888 130.935 150.39 131.578 150.106 132.327L140.231 158.356H195.067L205.12 131.859C205.207 131.628 205.239 131.379 205.211 131.133C205.183 130.887 205.098 130.652 204.961 130.448C204.825 130.244 204.642 130.077 204.429 129.961C204.215 129.846 203.977 129.785 203.736 129.785Z" fill="#D2D2D2"/>
<path d="M173.945 145.169L174.786 143H171.627L170.787 145.169H173.945Z" fill="white"/>
<path d="M174.751 145.169H177.611L178.452 143H175.592L174.751 145.169Z" fill="white"/>
<path d="M173.647 145.935H170.49L169.65 148.104H172.807L173.647 145.935Z" fill="white"/>
<path d="M174.453 145.935L173.613 148.104H176.474L177.314 145.935H174.453Z" fill="white"/>
<path d="M37.437 176.573L46.3124 185.67L46.5754 176.573H37.437Z" fill="#939393"/>
<path fill-rule="evenodd" clip-rule="evenodd" d="M128.23 46.263C128.23 43.2854 129.091 40.3747 130.705 37.899C132.319 35.4233 134.613 33.4937 137.298 32.3542C139.982 31.2148 142.935 30.9166 145.785 31.4975C148.634 32.0784 151.251 33.5122 153.306 35.6177C155.36 37.7231 156.759 40.4056 157.326 43.3259C157.893 46.2463 157.602 49.2733 156.49 52.0241C155.378 54.775 153.495 57.1262 151.08 58.7805C148.664 60.4347 145.824 61.3177 142.919 61.3177C139.023 61.3177 135.287 59.7315 132.532 56.9082C129.777 54.0849 128.23 50.2557 128.23 46.263Z" fill="#ED8422"/>
<path fill-rule="evenodd" clip-rule="evenodd" d="M128.23 46.2629C128.227 48.8266 128.866 51.3481 130.085 53.5864C132.847 54.6048 135.826 54.841 138.707 54.2702C141.589 53.6995 144.267 52.3428 146.46 50.3431C148.652 48.3434 150.278 45.7748 151.166 42.9077C152.054 40.0406 152.171 36.9811 151.505 34.0516C149.311 32.4308 146.724 31.4622 144.028 31.2524C141.331 31.0426 138.631 31.5999 136.224 32.8628C133.817 34.1256 131.797 36.045 130.386 38.4095C128.976 40.7739 128.229 43.4916 128.23 46.2629Z" fill="#FDA84C"/>
<path d="M146.45 43.7963C146.374 43.6001 146.242 43.4319 146.071 43.3135C145.9 43.195 145.699 43.1316 145.493 43.1316C145.286 43.1316 145.085 43.195 144.914 43.3135C144.744 43.4319 144.612 43.6001 144.535 43.7963H143.452V42.0055C143.676 41.9154 143.861 41.7481 143.977 41.5326C144.094 41.3171 144.133 41.0668 144.088 40.8249C144.043 40.5831 143.917 40.3648 143.732 40.2078C143.547 40.0508 143.315 39.9648 143.075 39.9648C142.834 39.9648 142.602 40.0508 142.417 40.2078C142.232 40.3648 142.106 40.5831 142.061 40.8249C142.017 41.0668 142.056 41.3171 142.172 41.5326C142.288 41.7481 142.473 41.9154 142.697 42.0055V44.1829L143.074 44.5702H144.532C144.609 44.7664 144.741 44.9346 144.911 45.0531C145.082 45.1716 145.284 45.2349 145.49 45.2349C145.696 45.2349 145.897 45.1716 146.068 45.0531C146.239 44.9346 146.371 44.7664 146.447 44.5702H146.471V44.4947C146.537 44.2941 146.537 44.077 146.471 43.8764V43.8009L146.45 43.7963Z" fill="white"/>
<path d="M135.062 44.886C135.268 44.8855 135.47 44.8213 135.641 44.7018C135.812 44.5822 135.944 44.4128 136.019 44.2155H137.913V45.6734C137.69 45.7636 137.504 45.9309 137.388 46.1464C137.272 46.362 137.233 46.6122 137.278 46.854C137.323 47.0958 137.448 47.3141 137.633 47.471C137.818 47.628 138.051 47.7139 138.291 47.7139C138.531 47.7139 138.764 47.628 138.949 47.471C139.134 47.3141 139.26 47.0958 139.304 46.854C139.349 46.6122 139.31 46.362 139.194 46.1464C139.078 45.9309 138.893 45.7636 138.669 45.6734V43.829L138.291 43.4417H136.019C135.951 43.2627 135.835 43.1065 135.686 42.9896C135.537 42.8727 135.36 42.7997 135.174 42.7785C134.987 42.7572 134.799 42.7884 134.628 42.8689C134.458 42.9493 134.312 43.0758 134.207 43.2349C134.101 43.3939 134.04 43.5794 134.03 43.7714C134.02 43.9634 134.061 44.1546 134.149 44.3245C134.237 44.4943 134.368 44.6363 134.529 44.7353C134.69 44.8342 134.874 44.8863 135.062 44.886Z" fill="white"/>
<path d="M147.967 41.3357C147.735 41.3378 147.51 41.4203 147.329 41.57C147.148 41.7196 147.021 41.9275 146.97 42.16C146.919 42.3925 146.946 42.6359 147.047 42.8506C147.147 43.0654 147.316 43.239 147.525 43.3432V46.2689H144.817C144.729 46.0397 144.566 45.8492 144.356 45.7302C144.146 45.6111 143.901 45.5711 143.665 45.6169C143.429 45.6627 143.216 45.7915 143.063 45.9811C142.91 46.1707 142.826 46.4092 142.826 46.6554C142.826 46.9016 142.91 47.1401 143.063 47.3297C143.216 47.5193 143.429 47.6481 143.665 47.694C143.901 47.7398 144.146 47.6997 144.356 47.5807C144.566 47.4617 144.729 47.2711 144.817 47.042H147.903L148.28 46.6554V43.3999C148.512 43.3213 148.709 43.1613 148.836 42.948C148.963 42.7348 149.013 42.4823 148.976 42.2352C148.938 41.9882 148.817 41.7626 148.633 41.5986C148.449 41.4347 148.214 41.3428 147.97 41.3395" fill="white"/>
<path d="M150.458 44.6155V40.6367L150.348 40.3634L149.425 39.4173L149.158 39.3041H146.836C146.748 39.075 146.585 38.8846 146.375 38.7656C146.165 38.6467 145.92 38.6067 145.684 38.6525C145.448 38.6984 145.235 38.8272 145.082 39.0168C144.929 39.2064 144.845 39.4449 144.845 39.691C144.845 39.9372 144.929 40.1757 145.082 40.3652C145.235 40.5548 145.448 40.6837 145.684 40.7295C145.92 40.7754 146.165 40.7354 146.375 40.6164C146.585 40.4975 146.748 40.3071 146.836 40.078H149.001L149.703 40.7975V44.6155C149.48 44.7056 149.294 44.8729 149.178 45.0884C149.062 45.3039 149.023 45.5542 149.068 45.7961C149.112 46.0379 149.238 46.2562 149.423 46.4132C149.608 46.5702 149.841 46.6562 150.081 46.6562C150.321 46.6562 150.554 46.5702 150.739 46.4132C150.924 46.2562 151.049 46.0379 151.094 45.7961C151.139 45.5542 151.1 45.3039 150.984 45.0884C150.868 44.8729 150.682 44.7056 150.458 44.6155Z" fill="white"/>
<path d="M138.799 39.2474C139.005 39.247 139.207 39.1828 139.378 39.0633C139.549 38.9437 139.681 38.7743 139.756 38.577H142.119C142.207 38.8061 142.37 38.9965 142.58 39.1155C142.79 39.2344 143.035 39.2744 143.271 39.2286C143.507 39.1827 143.72 39.0539 143.873 38.8643C144.026 38.6747 144.11 38.4362 144.11 38.1901C144.11 37.9439 144.026 37.7054 143.873 37.5159C143.72 37.3263 143.507 37.1974 143.271 37.1516C143.035 37.1057 142.79 37.1457 142.58 37.2646C142.37 37.3836 142.207 37.574 142.119 37.8031H139.757C139.688 37.6242 139.573 37.4679 139.424 37.3511C139.275 37.2342 139.098 37.1612 138.912 37.1399C138.725 37.1187 138.536 37.1499 138.366 37.2303C138.196 37.3108 138.05 37.4373 137.944 37.5963C137.839 37.7554 137.778 37.9409 137.768 38.1329C137.757 38.3249 137.798 38.5161 137.886 38.6859C137.974 38.8558 138.106 38.9978 138.267 39.0968C138.428 39.1957 138.612 39.2478 138.799 39.2474" fill="white"/>
<path d="M136.952 41.9949C137.159 41.9944 137.361 41.9302 137.532 41.8107C137.703 41.6911 137.834 41.5217 137.91 41.3244H140.685V45.6732C140.462 45.7633 140.276 45.9306 140.16 46.1461C140.044 46.3616 140.005 46.6119 140.049 46.8538C140.094 47.0956 140.22 47.3139 140.405 47.4709C140.59 47.6279 140.823 47.7139 141.063 47.7139C141.303 47.7139 141.536 47.6279 141.721 47.4709C141.906 47.3139 142.031 47.0956 142.076 46.8538C142.121 46.6119 142.082 46.3616 141.966 46.1461C141.85 45.9306 141.664 45.7633 141.44 45.6732V40.9379L141.062 40.5505H137.91C137.841 40.3716 137.726 40.2153 137.577 40.0985C137.428 39.9816 137.251 39.9086 137.065 39.8873C136.878 39.8661 136.69 39.8973 136.519 39.9778C136.349 40.0582 136.203 40.1847 136.098 40.3438C135.992 40.5028 135.931 40.6883 135.921 40.8803C135.911 41.0723 135.952 41.2635 136.04 41.4333C136.127 41.6032 136.259 41.7452 136.42 41.8442C136.581 41.9431 136.765 41.9952 136.952 41.9949Z" fill="white"/>
<path d="M142.237 48.1767C142.031 48.1772 141.829 48.2414 141.658 48.3609C141.487 48.4805 141.355 48.6499 141.28 48.8472H137.571L136.032 47.27C136.104 47.0581 136.108 46.8283 136.044 46.6138C135.979 46.3994 135.85 46.2114 135.675 46.077C135.5 45.9427 135.288 45.869 135.069 45.8665C134.85 45.8641 134.636 45.933 134.458 46.0634C134.28 46.1938 134.147 46.3789 134.078 46.5919C134.01 46.8048 134.009 47.0347 134.076 47.2481C134.143 47.4616 134.275 47.6476 134.452 47.7792C134.629 47.9109 134.843 47.9813 135.062 47.9804C135.227 47.9796 135.391 47.9371 135.537 47.8566L137.148 49.507L137.415 49.6211H141.28C141.349 49.8 141.464 49.9563 141.613 50.0731C141.762 50.19 141.939 50.263 142.125 50.2843C142.312 50.3055 142.5 50.2743 142.671 50.1938C142.841 50.1134 142.987 49.9869 143.092 49.8278C143.198 49.6688 143.259 49.4833 143.269 49.2913C143.279 49.0993 143.238 48.9081 143.15 48.7382C143.062 48.5684 142.931 48.4264 142.77 48.3274C142.609 48.2285 142.425 48.1764 142.237 48.1767Z" fill="white"/>
<path d="M146.171 49.2338C146.172 49.0415 146.121 48.8528 146.024 48.6879C145.928 48.523 145.789 48.3883 145.623 48.2981C145.458 48.208 145.271 48.1659 145.084 48.1764C144.896 48.1868 144.715 48.2495 144.56 48.3576C144.405 48.4656 144.282 48.615 144.203 48.7897C144.125 48.9644 144.094 49.1576 144.115 49.3487C144.136 49.5398 144.207 49.7215 144.321 49.8742C144.435 50.0269 144.587 50.1448 144.762 50.2153V53.2564C144.538 53.3465 144.353 53.5138 144.237 53.7293C144.12 53.9448 144.081 54.1951 144.126 54.437C144.171 54.6788 144.297 54.8971 144.482 55.0541C144.667 55.2111 144.899 55.2971 145.139 55.2971C145.38 55.2971 145.612 55.2111 145.797 55.0541C145.982 54.8971 146.108 54.6788 146.153 54.437C146.197 54.1951 146.158 53.9448 146.042 53.7293C145.926 53.5138 145.741 53.3465 145.517 53.2564V50.216C145.71 50.1385 145.875 50.0035 145.991 49.8285C146.108 49.6534 146.171 49.4465 146.171 49.2345" fill="white"/>
<path d="M148.931 49.2338C148.932 49.0415 148.881 48.8528 148.784 48.6879C148.688 48.523 148.549 48.3883 148.384 48.2981C148.218 48.208 148.031 48.1659 147.844 48.1764C147.657 48.1868 147.476 48.2495 147.32 48.3576C147.165 48.4656 147.042 48.615 146.963 48.7897C146.885 48.9644 146.854 49.1576 146.875 49.3487C146.896 49.5398 146.967 49.7215 147.081 49.8742C147.195 50.0269 147.348 50.1448 147.522 50.2153V51.458C147.299 51.5481 147.113 51.7154 146.997 51.9309C146.881 52.1464 146.842 52.3967 146.886 52.6386C146.931 52.8804 147.057 53.0987 147.242 53.2557C147.427 53.4127 147.66 53.4986 147.9 53.4986C148.14 53.4986 148.373 53.4127 148.558 53.2557C148.743 53.0987 148.868 52.8804 148.913 52.6386C148.958 52.3967 148.919 52.1464 148.803 51.9309C148.687 51.7154 148.501 51.5481 148.277 51.458V50.216C148.47 50.1385 148.635 50.0035 148.752 49.8285C148.868 49.6534 148.931 49.4465 148.931 49.2345" fill="white"/>
<path fill-rule="evenodd" clip-rule="evenodd" d="M177.104 15.3314C177.104 12.3665 177.962 9.46824 179.569 7.00306C181.177 4.53788 183.461 2.61651 186.134 1.48191C188.806 0.347316 191.747 0.050453 194.584 0.628866C197.422 1.20728 200.028 2.63499 202.074 4.73145C204.119 6.82791 205.512 9.49897 206.076 12.4068C206.641 15.3147 206.351 18.3288 205.244 21.068C204.137 23.8071 202.262 26.1483 199.857 27.7955C197.452 29.4427 194.624 30.3219 191.731 30.3219C189.81 30.322 187.908 29.9343 186.134 29.181C184.359 28.4277 182.746 27.3235 181.388 25.9315C180.03 24.5395 178.953 22.8869 178.218 21.0681C177.483 19.2493 177.104 17.3 177.104 15.3314Z" fill="#45A094"/>
<path fill-rule="evenodd" clip-rule="evenodd" d="M255.131 32.3097C255.853 35.1437 255.74 38.1337 254.804 40.9015C253.869 43.6694 252.153 46.0907 249.875 47.8594C247.597 49.628 244.858 50.6646 242.005 50.8379C239.152 51.0112 236.313 50.3136 233.846 48.8332C231.38 47.3528 229.398 45.1561 228.15 42.521C226.902 39.8858 226.444 36.9306 226.835 34.0289C227.226 31.1272 228.447 28.4094 230.345 26.2193C232.243 24.0292 234.732 22.465 237.497 21.7246C241.205 20.7318 245.146 21.2893 248.453 23.2743C251.76 25.2594 254.162 28.5095 255.131 32.3097Z" fill="#043C40"/>
<path fill-rule="evenodd" clip-rule="evenodd" d="M250.893 25.1169C248.18 22.5793 244.626 21.1958 240.954 21.2475C237.281 21.2992 233.765 22.7823 231.121 25.3954C228.477 28.0084 226.903 31.5552 226.719 35.315C226.535 39.0747 227.755 42.7652 230.131 45.6362C232.707 46.1202 235.355 46.027 237.893 45.3629C242.162 44.3092 245.88 41.631 248.294 37.8713C250.708 34.1117 251.636 29.552 250.891 25.1169" fill="#0D7364"/>
<path d="M248.329 34.2735C247.973 34.2738 247.622 34.358 247.302 34.5196C246.983 34.6811 246.704 34.9157 246.488 35.2052L242.206 33.098L243.12 31.6703C243.468 31.7836 243.841 31.7846 244.189 31.6732C244.537 31.5618 244.843 31.3434 245.066 31.0476C245.289 30.7518 245.418 30.3929 245.435 30.0195C245.453 29.6462 245.357 29.2764 245.163 28.9603C244.968 28.6443 244.683 28.3972 244.347 28.2527C244.011 28.1081 243.639 28.073 243.283 28.1522C242.926 28.2313 242.602 28.4208 242.354 28.6951C242.106 28.9694 241.947 29.3151 241.897 29.6854L238.081 30.2214C237.969 29.9826 237.802 29.7757 237.594 29.6188C237.387 29.4619 237.144 29.36 236.888 29.3221C236.633 29.2842 236.372 29.3114 236.129 29.4014C235.887 29.4913 235.669 29.6413 235.496 29.8379C235.324 30.0346 235.201 30.2718 235.139 30.5287C235.077 30.7856 235.078 31.0542 235.141 31.3107C235.204 31.5672 235.329 31.8037 235.503 31.9993C235.676 32.1949 235.895 32.3436 236.138 32.4321L235.977 37.662C235.378 37.7401 234.814 37.9938 234.351 38.3927C233.889 38.7915 233.549 39.3185 233.372 39.9105C233.195 40.5025 233.188 41.1342 233.353 41.73C233.517 42.3258 233.846 42.8603 234.299 43.2694C234.753 43.6785 235.312 43.9449 235.909 44.0365C236.507 44.128 237.118 44.041 237.668 43.7858C238.218 43.5306 238.685 43.118 239.013 42.5976C239.34 42.0772 239.514 41.471 239.513 40.8518C239.513 40.7809 239.508 40.7114 239.503 40.6419L246.373 37.9542C246.592 38.3016 246.895 38.5847 247.253 38.7757C247.611 38.9667 248.012 39.059 248.415 39.0434C248.818 39.0279 249.211 38.9052 249.554 38.6873C249.897 38.4694 250.179 38.1637 250.372 37.8004C250.565 37.4371 250.663 37.0286 250.655 36.6149C250.648 36.2013 250.535 35.7968 250.329 35.4411C250.123 35.0854 249.83 34.7907 249.48 34.586C249.129 34.3813 248.732 34.2736 248.328 34.2735H248.329ZM237.893 38.0342C237.596 37.8658 237.274 37.7487 236.94 37.6876L237.102 32.4615C237.37 32.3837 237.613 32.2335 237.806 32.0266L240.797 33.4989L237.893 38.0342ZM238.319 31.1841L242.021 30.6646C242.096 30.8338 242.195 30.9903 242.316 31.1289L241.332 32.6661L238.319 31.1841ZM239.292 39.668C239.145 39.2879 238.928 38.94 238.654 38.6427L241.674 33.9308L246.071 36.0953C246.026 36.2801 246.003 36.4697 246.003 36.6601C246.004 36.7843 246.014 36.9082 246.034 37.0308L239.292 39.668Z" fill="white"/>
<path fill-rule="evenodd" clip-rule="evenodd" d="M177.105 15.3314C177.1 18.077 177.835 20.7706 179.229 23.1155C182.023 24.5381 185.177 25.0463 188.262 24.5712C191.347 24.0962 194.216 22.6608 196.479 20.4595C198.741 18.2582 200.29 15.3974 200.914 12.2643C201.537 9.13126 201.207 5.87741 199.966 2.94339C197.768 1.40856 195.203 0.517096 192.547 0.364929C189.892 0.212763 187.246 0.80565 184.895 2.0798C182.543 3.35394 180.575 5.26111 179.203 7.59608C177.83 9.93104 177.105 12.6054 177.105 15.3314Z" fill="#48C4AE"/>
<path d="M197.267 11.9399C196.986 12.0778 196.739 12.2779 196.542 12.5258C196.516 12.4616 196.488 12.3982 196.459 12.3348C195.991 11.3283 195.163 10.5457 194.146 10.1499C193.129 9.75407 192.003 9.7757 191.001 10.2102C190 10.6448 189.2 11.4587 188.77 12.4824C188.34 13.5061 188.311 14.6605 188.691 15.7051C188.256 15.4692 187.77 15.3513 187.279 15.3625C186.787 15.3737 186.306 15.5136 185.882 15.769C185.459 16.0244 185.105 16.3867 184.857 16.8215C184.608 17.2563 184.472 17.749 184.462 18.2529C184.452 18.7567 184.567 19.2549 184.798 19.6999C185.029 20.1449 185.367 20.5221 185.78 20.7954C186.193 21.0687 186.668 21.2291 187.158 21.2613C187.649 21.2936 188.14 21.1965 188.583 20.9795L199.085 15.8455C199.591 15.5984 199.98 15.1557 200.167 14.6146C200.353 14.0736 200.323 13.4787 200.082 12.9607C199.841 12.4426 199.409 12.044 198.881 11.8524C198.353 11.6609 197.773 11.6921 197.267 11.9391" fill="white"/>
<path fill-rule="evenodd" clip-rule="evenodd" d="M309.998 30.738C310.759 33.7287 310.639 36.8838 309.651 39.8043C308.663 42.7247 306.853 45.2794 304.448 47.1453C302.044 49.0111 299.153 50.1043 296.143 50.2867C293.132 50.469 290.136 49.7323 287.534 48.1697C284.932 46.6071 282.84 44.2888 281.524 41.5079C280.207 38.727 279.725 35.6084 280.138 32.5465C280.55 29.4846 281.84 26.6169 283.843 24.3061C285.846 21.9952 288.472 20.345 291.39 19.564C293.328 19.0454 295.346 18.923 297.33 19.2039C299.314 19.4848 301.224 20.1635 302.952 21.2011C304.68 22.2387 306.192 23.615 307.4 25.2513C308.609 26.8877 309.492 28.752 309.998 30.738Z" fill="#823C0D"/>
<path fill-rule="evenodd" clip-rule="evenodd" d="M305.522 23.1472C302.659 20.4714 298.91 19.013 295.035 19.0684C291.161 19.1238 287.452 20.6887 284.663 23.4453C281.874 26.2019 280.213 29.9434 280.018 33.9096C279.823 37.8758 281.109 41.7693 283.614 44.7991C286.334 45.3097 289.129 45.2113 291.808 44.5107C296.313 43.3988 300.237 40.5723 302.784 36.6045C305.331 32.6366 306.31 27.8245 305.522 23.1442" fill="#AF5F28"/>
<path fill-rule="evenodd" clip-rule="evenodd" d="M279.766 97.9381C279.766 101.299 278.793 104.584 276.971 107.379C275.149 110.173 272.56 112.351 269.53 113.637C266.5 114.923 263.167 115.259 259.951 114.604C256.734 113.948 253.78 112.329 251.461 109.953C249.143 107.576 247.564 104.548 246.924 101.252C246.284 97.956 246.613 94.5393 247.868 91.4343C249.123 88.3294 251.248 85.6755 253.974 83.8083C256.701 81.9412 259.906 80.9446 263.186 80.9446C267.583 80.9448 271.8 82.7353 274.91 85.9221C278.019 89.109 279.766 93.4313 279.766 97.9381Z" fill="#ED8422"/>
<path fill-rule="evenodd" clip-rule="evenodd" d="M246.605 97.9383C246.599 102.143 248.121 106.2 250.873 109.318C254.041 109.238 257.133 108.313 259.846 106.634C262.558 104.955 264.796 102.58 266.339 99.7436C267.883 96.9072 268.678 93.7074 268.646 90.4599C268.614 87.2125 267.756 84.0297 266.158 81.2256C263.768 80.777 261.311 80.8725 258.961 81.5056C256.611 82.1386 254.426 83.2935 252.56 84.8886C250.694 86.4836 249.194 88.4797 248.164 90.7354C247.135 92.9911 246.603 95.4512 246.605 97.9413" fill="#FDA84C"/>
<path d="M296.31 41.7103L300.017 39.3653C299.436 37.7758 299.296 36.0522 299.613 34.386C299.834 33.2158 299.717 32.0048 299.275 30.902C298.834 29.7991 298.088 28.8526 297.128 28.1786C296.169 27.5047 295.038 27.1328 293.876 27.1087C292.713 27.0845 291.568 27.4092 290.583 28.0428C289.598 28.6764 288.815 29.5912 288.33 30.6748C287.846 31.7584 287.681 32.9636 287.856 34.142C288.03 35.3205 288.537 36.4209 289.314 37.308C290.091 38.1951 291.104 38.8301 292.229 39.135C293.803 39.572 295.221 40.4664 296.31 41.7103Z" fill="white"/>
<path d="M300.026 39.3577L296.286 41.7223L297.485 43.7133L298.781 42.8933L299.301 43.757L300.449 43.0315L299.929 42.1678L301.225 41.3478L300.026 39.3577Z" fill="#E6E6E6"/>
<path d="M273.15 99.2466V96.4267L270.212 95.945C270.035 95.2705 269.767 94.6246 269.416 94.0258L271.173 91.5343L269.228 89.5403L266.776 91.3599C266.199 91.0182 265.58 90.7586 264.934 90.5883L264.454 87.5146H261.703L261.222 90.5883C260.577 90.7589 259.958 91.0182 259.381 91.3591L256.929 89.5403L254.984 91.5343L256.742 94.0258C256.391 94.6244 256.123 95.2704 255.946 95.945L253.008 96.4267V99.2466L255.902 99.7222C256.07 100.424 256.335 101.097 256.69 101.721L254.984 104.137L256.929 106.132L259.262 104.401C259.879 104.783 260.547 105.07 261.246 105.252L261.7 108.157H264.452L264.905 105.252C265.604 105.07 266.273 104.783 266.89 104.401L269.223 106.132L271.168 104.137L269.463 101.721C269.817 101.097 270.082 100.424 270.249 99.7222L273.15 99.2466ZM263.985 101.86C263.33 102.017 262.647 101.999 262.001 101.81C261.354 101.621 260.766 101.266 260.29 100.779C259.815 100.291 259.468 99.688 259.284 99.0256C259.099 98.3631 259.082 97.6633 259.234 96.9922C259.398 96.2556 259.762 95.5814 260.283 95.0471C260.804 94.5129 261.462 94.1403 262.181 93.9722C262.835 93.8159 263.518 93.8333 264.165 94.0225C264.811 94.2118 265.399 94.5667 265.875 95.0538C266.35 95.5409 266.697 96.1441 266.881 96.8065C267.066 97.4689 267.083 98.1686 266.931 98.8396C266.767 99.5763 266.403 100.25 265.882 100.785C265.361 101.319 264.703 101.692 263.984 101.86" fill="white"/>
<path fill-rule="evenodd" clip-rule="evenodd" d="M224.788 141.363C224.788 139.055 225.456 136.799 226.707 134.88C227.958 132.961 229.737 131.465 231.817 130.582C233.898 129.699 236.187 129.468 238.396 129.918C240.605 130.369 242.634 131.48 244.226 133.112C245.819 134.745 246.903 136.824 247.342 139.088C247.782 141.351 247.556 143.698 246.694 145.83C245.832 147.963 244.373 149.785 242.5 151.067C240.628 152.35 238.426 153.034 236.174 153.034C234.679 153.034 233.198 152.732 231.817 152.146C230.435 151.559 229.18 150.7 228.122 149.616C227.065 148.532 226.226 147.245 225.654 145.83C225.082 144.414 224.788 142.896 224.788 141.363Z" fill="#45A094"/>
<path fill-rule="evenodd" clip-rule="evenodd" d="M224.787 141.364C224.784 143.501 225.356 145.598 226.441 147.424C228.616 148.531 231.071 148.927 233.473 148.557C235.875 148.187 238.108 147.07 239.87 145.356C241.631 143.642 242.837 141.415 243.322 138.976C243.808 136.537 243.551 134.004 242.585 131.72C240.874 130.525 238.877 129.83 236.81 129.712C234.742 129.593 232.682 130.055 230.852 131.047C229.021 132.039 227.489 133.523 226.42 135.341C225.352 137.159 224.787 139.241 224.787 141.364Z" fill="#48C4AE"/>
<path fill-rule="evenodd" clip-rule="evenodd" d="M220.085 88.7838C220.085 94.1469 218.533 99.3896 215.625 103.849C212.718 108.308 208.586 111.783 203.751 113.836C198.917 115.888 193.597 116.425 188.464 115.379C183.332 114.332 178.618 111.749 174.918 107.957C171.217 104.165 168.698 99.3331 167.677 94.073C166.656 88.8129 167.18 83.3607 169.183 78.4058C171.185 73.451 174.576 69.216 178.927 66.2364C183.278 63.2568 188.394 61.6665 193.627 61.6665C200.644 61.6667 207.374 64.5238 212.335 69.6093C217.297 74.6947 220.085 81.592 220.085 88.7838Z" fill="#ED8422"/>
<path fill-rule="evenodd" clip-rule="evenodd" d="M167.168 88.7839C167.16 95.4937 169.588 101.967 173.979 106.943C179.035 106.816 183.97 105.34 188.299 102.66C192.628 99.9802 196.2 96.1899 198.663 91.663C201.126 87.1361 202.394 82.0293 202.343 76.8466C202.291 71.6638 200.922 66.5844 198.37 62.1098C194.556 61.394 190.636 61.5466 186.886 62.5568C183.136 63.567 179.649 65.41 176.672 67.9553C173.695 70.5005 171.3 73.6858 169.658 77.2852C168.015 80.8847 167.166 84.8103 167.168 88.7839Z" fill="#FDA84C"/>
<path d="M233.345 146.011L233.283 136.492C233.282 136.378 233.311 136.266 233.367 136.168C233.423 136.07 233.504 135.989 233.602 135.934C233.699 135.879 233.809 135.853 233.92 135.857C234.031 135.861 234.138 135.895 234.232 135.957L241.377 140.668C241.463 140.725 241.535 140.803 241.584 140.895C241.633 140.987 241.66 141.09 241.66 141.195C241.661 141.3 241.636 141.403 241.588 141.496C241.539 141.589 241.469 141.667 241.384 141.725L234.301 146.534C234.208 146.597 234.101 146.634 233.99 146.639C233.879 146.645 233.768 146.62 233.67 146.566C233.572 146.513 233.49 146.433 233.432 146.335C233.374 146.238 233.344 146.126 233.343 146.012" fill="white"/>
<path fill-rule="evenodd" clip-rule="evenodd" d="M83.184 19.3253C82.5278 16.4247 82.7256 13.3899 83.7524 10.6045C84.7791 7.81912 86.5887 5.40834 88.9523 3.67701C91.3159 1.94569 94.1274 0.971562 97.0312 0.877826C99.9349 0.78409 102.801 1.57495 105.266 3.1504C107.731 4.72585 109.685 7.01514 110.881 9.72876C112.077 12.4424 112.46 15.4585 111.984 18.3956C111.507 21.3328 110.191 24.0591 108.202 26.2298C106.214 28.4005 103.642 29.9181 100.812 30.5906C98.9325 31.0372 96.9859 31.1001 95.083 30.7757C93.1801 30.4512 91.3582 29.7458 89.7213 28.6997C88.0844 27.6536 86.6646 26.2873 85.543 24.6789C84.4213 23.0704 83.6197 21.2513 83.184 19.3253Z" fill="#ED8422"/>
<path fill-rule="evenodd" clip-rule="evenodd" d="M83.184 19.3254C83.7464 21.8233 84.9245 24.1317 86.6058 26.0298C89.5205 26.3822 92.474 25.9226 95.1552 24.6994C97.8365 23.4762 100.146 21.5346 101.841 19.0791C103.537 16.6236 104.554 13.745 104.787 10.7466C105.02 7.74817 104.46 4.74079 103.166 2.04116C100.672 0.970063 97.938 0.62546 95.2652 1.04533C92.5923 1.4652 90.0844 2.63324 88.0179 4.42071C85.9515 6.20819 84.4066 8.54569 83.5537 11.1756C82.7007 13.8055 82.5728 16.6257 83.184 19.3254Z" fill="#FDA84C"/>
<path d="M105.713 19.6296L92.3923 22.7953C92.2696 22.8246 92.1425 22.8288 92.0182 22.8077C91.894 22.7866 91.775 22.7406 91.6681 22.6723C91.5612 22.604 91.4685 22.5147 91.3953 22.4096C91.3222 22.3046 91.2699 22.1857 91.2416 22.0599L89.3263 13.6039C89.2977 13.4782 89.2936 13.3479 89.3142 13.2205C89.3347 13.0932 89.3797 12.9712 89.4463 12.8617C89.513 12.7521 89.6 12.6571 89.7026 12.5821C89.8051 12.5071 89.9211 12.4536 90.0438 12.4246L103.365 9.25888C103.488 9.22967 103.615 9.22553 103.739 9.24669C103.863 9.26785 103.982 9.3139 104.089 9.3822C104.196 9.4505 104.288 9.53971 104.361 9.64473C104.434 9.74975 104.487 9.86853 104.515 9.99425L106.43 18.4502C106.459 18.5759 106.463 18.7061 106.442 18.8335C106.422 18.9608 106.377 19.0827 106.31 19.1923C106.244 19.3018 106.157 19.3968 106.054 19.4718C105.952 19.5469 105.836 19.6005 105.713 19.6296Z" fill="#823C0D"/>
<path d="M94.9928 19.6378L94.1604 19.1056L95.7752 16.4517L93.1851 14.796L93.7044 13.9429L97.1262 16.1309L94.9928 19.6378Z" fill="white"/>
<path d="M102.509 16.9714L98.7129 17.8735L98.9345 18.8532L102.731 17.951L102.509 16.9714Z" fill="white"/>
<path d="M103.336 8.56876L89.7763 11.7911C89.5604 11.8428 89.3733 11.9802 89.256 12.1731C89.1388 12.366 89.101 12.5987 89.1509 12.8202L89.4117 13.9708L104.6 10.3604L104.34 9.21051C104.29 8.98896 104.156 8.7969 103.968 8.67655C103.78 8.55621 103.552 8.51743 103.336 8.56876Z" fill="white"/>
<path d="M192.891 99.1287C192.94 99.1783 192.997 99.2176 193.06 99.2445C193.124 99.2713 193.191 99.2851 193.26 99.2851C193.328 99.2851 193.396 99.2713 193.459 99.2445C193.522 99.2176 193.58 99.1783 193.628 99.1287L204.031 88.4628C204.102 88.3879 204.15 88.2933 204.169 88.1906C204.188 88.0879 204.177 87.9818 204.138 87.8853C204.099 87.7888 204.033 87.7063 203.948 87.6479C203.864 87.5895 203.764 87.5578 203.662 87.5568H197.966V74.2326C197.965 74.0927 197.91 73.9589 197.814 73.86C197.717 73.7611 197.586 73.7051 197.45 73.7041H189.126C188.988 73.7041 188.857 73.7596 188.759 73.8586C188.662 73.9576 188.607 74.092 188.606 74.2326V87.5546H182.887C182.785 87.5549 182.685 87.5861 182.6 87.6444C182.515 87.7027 182.448 87.7854 182.409 87.8821C182.37 87.9789 182.359 88.0854 182.378 88.1883C182.398 88.2912 182.447 88.3859 182.518 88.4606L192.891 99.1287Z" fill="white"/>
<path d="M207.561 102.594H180.442V105.241H207.561V102.594Z" fill="white"/>
<path d="M188.408 51.6362C188.408 50.8023 187.748 50.1262 186.935 50.1262C186.121 50.1262 185.461 50.8023 185.461 51.6362V69.7562C185.461 70.5902 186.121 71.2662 186.935 71.2662C187.748 71.2662 188.408 70.5902 188.408 69.7562V51.6362Z" fill="#FDA84C"/>
<path d="M188.408 42.5764C188.408 41.7425 187.748 41.0664 186.935 41.0664C186.121 41.0664 185.461 41.7425 185.461 42.5764V44.0864C185.461 44.9204 186.121 45.5964 186.935 45.5964C187.748 45.5964 188.408 44.9204 188.408 44.0864V42.5764Z" fill="#FDA84C"/>
<path d="M191.355 55.4114C191.355 54.5774 190.695 53.9014 189.881 53.9014C189.068 53.9014 188.408 54.5774 188.408 55.4114V66.7364C188.408 67.5703 189.068 68.2464 189.881 68.2464C190.695 68.2464 191.355 67.5703 191.355 66.7364V55.4114Z" fill="white"/>
<path d="M205.527 37.2912C205.527 36.4573 204.867 35.7812 204.053 35.7812C203.24 35.7812 202.58 36.4573 202.58 37.2912V59.9412C202.58 60.7752 203.24 61.4512 204.053 61.4512C204.867 61.4512 205.527 60.7752 205.527 59.9412V37.2912Z" fill="#FDA84C"/>
<path d="M198.16 44.8413C198.16 44.0073 197.5 43.3313 196.687 43.3313C195.873 43.3313 195.213 44.0073 195.213 44.8413V53.9209C195.213 54.7549 195.873 55.4309 196.687 55.4309C197.5 55.4309 198.16 54.7549 198.16 53.9209V44.8413Z" fill="#FDA84C"/>
</svg>
